<svg xmlns="http://www.w3.org/2000/svg" viewBox="0 0 512 512" role="img" aria-labelledby="title desc">
<title>Belladonna Monogram</title>
<desc>A gothic BN monogram with crescent moon and crimson rose.</desc>
<defs>
  <linearGradient id="bg" x1="0" x2="1" y1="0" y2="1">
    <stop offset="0%" stop-color="#16080d"/>
    <stop offset="100%" stop-color="#2c0913"/>
  </linearGradient>
  <linearGradient id="gold" x1="0" x2="1">
    <stop offset="0%" stop-color="#e5c77f"/>
    <stop offset="100%" stop-color="#b98e44"/>
  </linearGradient>
  <radialGradient id="rose" cx="50%" cy="45%" r="55%">
    <stop offset="0%" stop-color="#ff5a72"/>
    <stop offset="55%" stop-color="#bf1830"/>
    <stop offset="100%" stop-color="#6f0816"/>
  </radialGradient>
</defs>
<rect width="512" height="512" rx="96" fill="url(#bg)"/>
<circle cx="256" cy="256" r="205" fill="none" stroke="url(#gold)" stroke-width="8" opacity=".9"/>
<circle cx="256" cy="256" r="176" fill="none" stroke="#c9a45f" stroke-width="2" opacity=".45"/>
<path d="M256 116c-28 18-49 46-58 80 12-15 28-29 48-40-12 23-18 52-17 81 12-21 28-41 49-57 4 27 15 52 32 74 9-28 10-58 2-87 18 13 34 31 45 52-2-41-18-80-47-109-16 4-35 6-54 6z" fill="url(#rose)" stroke="#e37f90" stroke-width="2"/>
<path d="M256 333c-8 22-19 41-34 57 16-5 33-9 51-10 14 0 28 4 42 10-13-17-25-36-33-57z" fill="#7b0a1a" stroke="#c94a5d" stroke-width="2"/>
<path d="M207 185a78 78 0 1 0 70-113 109 109 0 1 1-70 113z" fill="none" stroke="url(#gold)" stroke-width="10" stroke-linecap="round"/>
<text x="256" y="315" text-anchor="middle" font-family="Cinzel, Georgia, serif" font-size="138" font-weight="700" fill="#f4e6c6">BN</text>
<path d="M124 382c46-24 78-30 132-30s86 6 132 30" fill="none" stroke="#c9a45f" stroke-width="4" opacity=".7"/>
<path d="M112 150l18 18 18-18-18-18-18 18zm252 0l18 18 18-18-18-18-18 18z" fill="#c9a45f" opacity=".85"/>
</svg>